<svg width="120" height="120" viewBox="0 0 120 120" fill="none" xmlns="http://www.w3.org/2000/svg">
  <circle cx="60" cy="60" r="52" stroke="#00BFFF" stroke-width="4"/>
  <g transform="translate(24,28)">
    <polyline points="40,10 47,10 55,38" stroke="#00BFFF" stroke-width="4" stroke-linecap="round" stroke-linejoin="round"/>
    <circle cx="55" cy="38" r="9" stroke="#FFFFFF" stroke-width="4"/>
    <circle cx="12" cy="38" r="9" stroke="#FFFFFF" stroke-width="4"/>
    <path d="M12,24c8.6,0,16,6.7,16,14h9c0-8.6,7.4-14,16-14c1.4,0,2.8,0.2,4,0.6" stroke="#FFFFFF" stroke-width="4" stroke-linecap="round" stroke-linejoin="round"/>
    <path d="M34,21H24l-1,1.5c-2.2,3.5-6,5.2-10,4.4" stroke="#00BFFF" stroke-width="4" stroke-linecap="round" stroke-linejoin="round"/>
  </g>
  <path d="M84 24L86.5 30L93 31L88 35.5L89.5 42L84 38.8L78.5 42L80 35.5L75 31L81.5 30L84 24Z" fill="#00BFFF"/>
</svg>
