<svg width="120" height="120" viewBox="0 0 120 120" fill="none" xmlns="http://www.w3.org/2000/svg">
  <rect x="12" y="12" width="96" height="96" rx="20" stroke="#00BFFF" stroke-width="4"/>
  <g transform="translate(24,28)">
    <polyline points="40,10 47,10 55,38" stroke="#00BFFF" stroke-width="4" stroke-linecap="round" stroke-linejoin="round"/>
    <circle cx="55" cy="38" r="9" stroke="#FFFFFF" stroke-width="4"/>
    <circle cx="12" cy="38" r="9" stroke="#FFFFFF" stroke-width="4"/>
    <path d="M12,24c8.6,0,16,6.7,16,14h9c0-8.6,7.4-14,16-14c1.4,0,2.8,0.2,4,0.6" stroke="#FFFFFF" stroke-width="4" stroke-linecap="round" stroke-linejoin="round"/>
    <path d="M34,21H24l-1,1.5c-2.2,3.5-6,5.2-10,4.4" stroke="#00BFFF" stroke-width="4" stroke-linecap="round" stroke-linejoin="round"/>
  </g>
  <circle cx="60" cy="23" r="9" stroke="#00BFFF" stroke-width="3"/>
  <path d="M60 18V23L63.5 26" stroke="#00BFFF" stroke-width="3" stroke-linecap="round"/>
</svg>
